<svg width="25" height="26" viewBox="0 0 25 26" fill="none" xmlns="http://www.w3.org/2000/svg">
<path fill-rule="evenodd" clip-rule="evenodd" d="M12.1875 1.65401C12.9327 0.757962 14.056 0.1875 15.3125 0.1875C17.5561 0.1875 19.375 2.00634 19.375 4.25C19.375 5.0554 19.1406 5.80606 18.7364 6.4375H24.375V15.8125H23.125V25.8125H1.25V15.8125H0V6.4375H5.63864C5.23438 5.80606 5 5.0554 5 4.25C5 2.00634 6.81884 0.1875 9.0625 0.1875C10.319 0.1875 11.4423 0.757962 12.1875 1.65401ZM11.25 4.25C11.25 3.04188 10.2706 2.0625 9.0625 2.0625C7.85437 2.0625 6.875 3.04188 6.875 4.25C6.875 5.45813 7.85437 6.4375 9.0625 6.4375C10.2706 6.4375 11.25 5.45813 11.25 4.25ZM1.875 8.3125V13.9375H11.25V8.3125H1.875ZM17.5 4.25C17.5 5.45813 16.5206 6.4375 15.3125 6.4375C14.1044 6.4375 13.125 5.45813 13.125 4.25C13.125 3.04188 14.1044 2.0625 15.3125 2.0625C16.5206 2.0625 17.5 3.04188 17.5 4.25ZM13.125 8.3125H22.5V13.9375H13.125V8.3125ZM21.25 15.8125H13.125V23.9375H21.25V15.8125ZM11.25 15.8125H3.125V23.9375H11.25V15.8125Z" fill="#0187FC"/>
</svg>
